<?xml version="1.0" encoding="UTF-8" standalone="no"?>
<svg
   xmlns:dc="http://purl.org/dc/elements/1.1/"
   xmlns:cc="http://creativecommons.org/ns#"
   xmlns:rdf="http://www.w3.org/1999/02/22-rdf-syntax-ns#"
   xmlns:svg="http://www.w3.org/2000/svg"
   xmlns="http://www.w3.org/2000/svg"
   xmlns:sodipodi="http://sodipodi.sourceforge.net/DTD/sodipodi-0.dtd"
   xmlns:inkscape="http://www.inkscape.org/namespaces/inkscape"
   version="1.1"
   id="Layer_1"
   x="0px"
   y="0px"
   viewBox="0 0 89.758 89.758"
   style="enable-background:new 0 0 89.758 89.758;"
   xml:space="preserve"
   width="512"
   height="512"
   class=""
   sodipodi:docname="001-instagram.svg"
   inkscape:version="0.92.3 (2405546, 2018-03-11)"><metadata
   id="metadata17"><rdf:RDF><cc:Work
       rdf:about=""><dc:format>image/svg+xml</dc:format><dc:type
         rdf:resource="http://purl.org/dc/dcmitype/StillImage" /></cc:Work></rdf:RDF></metadata><defs
   id="defs15" /><sodipodi:namedview
   pagecolor="#ffffff"
   bordercolor="#666666"
   borderopacity="1"
   objecttolerance="10"
   gridtolerance="10"
   guidetolerance="10"
   inkscape:pageopacity="0"
   inkscape:pageshadow="2"
   inkscape:window-width="1920"
   inkscape:window-height="1017"
   id="namedview13"
   showgrid="false"
   inkscape:zoom="1.84375"
   inkscape:cx="146.46185"
   inkscape:cy="376.74594"
   inkscape:window-x="0"
   inkscape:window-y="30"
   inkscape:window-maximized="1"
   inkscape:current-layer="Layer_1" /><g
   id="g10"><g
     id="g8">
	<path
   style="fill:##37333"
   d="M58.255,23.88H31.503c-4.27,0-7.744,3.474-7.744,7.744v26.752c0,4.27,3.474,7.745,7.744,7.745   h26.752c4.27,0,7.745-3.474,7.745-7.745V31.624C66,27.354,62.526,23.88,58.255,23.88z M44.879,58.906   c-7.667,0-13.905-6.238-13.905-13.906c0-7.667,6.238-13.905,13.905-13.905c7.668,0,13.906,6.238,13.906,13.905   C58.785,52.667,52.546,58.906,44.879,58.906z M59.232,33.97c-1.815,0-3.291-1.476-3.291-3.29c0-1.814,1.476-3.29,3.291-3.29   c1.814,0,3.29,1.476,3.29,3.29C62.522,32.494,61.046,33.97,59.232,33.97z"
   data-original="#6A453B"
   class="active-path"
   data-old_color="#BC563A"
   id="path2" />
	<path
   style="fill:##37333"
   d="M44.879,36.971c-4.426,0-8.03,3.602-8.03,8.028c0,4.428,3.604,8.031,8.03,8.031   c4.428,0,8.029-3.603,8.029-8.031C52.908,40.574,49.306,36.971,44.879,36.971z"
   data-original="#6A453B"
   class="active-path"
   data-old_color="#BC563A"
   id="path4" />
	<path
   style="fill:##37333"
   d="M44.879,0C20.094,0,0,20.094,0,44.879c0,24.785,20.094,44.879,44.879,44.879   c24.785,0,44.879-20.094,44.879-44.879C89.758,20.094,69.664,0,44.879,0z M71.875,58.376c0,7.511-6.109,13.62-13.62,13.62H31.503   c-7.51,0-13.62-6.109-13.62-13.62V31.624c0-7.51,6.11-13.62,13.62-13.62h26.752c7.511,0,13.62,6.11,13.62,13.62V58.376z"
   data-original="#6A453B"
   class="active-path"
   data-old_color="#BC563A"
   id="path6" />
</g></g> <path
   style="opacity:0.456;fill:none;fill-opacity:1;stroke:#000000;stroke-width:4.09982681;stroke-miterlimit:4;stroke-dasharray:none;stroke-opacity:1"
   d="M 217.38305,507.82013 C 165.64316,499.7064 117.87132,476.01132 80.05186,439.70313 13.382206,375.69759 -13.620501,282.17214 9.0171264,193.67014 30.357599,110.23939 93.892682,41.765782 175.26017,14.50517 c 105.91283,-35.484055 223.07206,2.554079 287.93692,93.48459 54.68581,76.66105 62.62344,179.49848 20.26043,262.48778 -50.38941,98.7131 -158.04596,154.28334 -266.07447,137.34259 z m 148.492,-103.90248 c 16.39871,-8.05166 29.12314,-20.7761 37.1748,-37.17481 l 6.3332,-12.89877 v -97.62712 -97.62712 l -6.9222,-13.24261 c -8.56103,-16.37778 -25.00966,-31.52187 -41.45392,-38.1662 -12.24687,-4.94837 -13.29549,-4.99797 -105.65778,-4.99797 h -93.28813 l -14.42983,6.83661 c -25.3223,11.99728 -40.4249,31.90362 -45.25711,59.65223 -1.60793,9.23343 -2.16199,42.1042 -1.6415,97.38557 0.87649,93.09219 0.89983,93.2542 16.39364,113.82051 4.49462,5.9661 12.89996,14.025 18.67853,17.90867 19.69218,13.23475 21.08722,13.37999 123.88339,12.89991 l 93.28813,-0.4357 z"
   id="path19"
   inkscape:connector-curvature="0"
   transform="scale(0.17530859)" /><path
   style="opacity:0.456;fill:none;fill-opacity:1;stroke:#000000;stroke-width:4.09982681;stroke-miterlimit:4;stroke-dasharray:none;stroke-opacity:1"
   d="M 222.17418,508.80922 C 186.68613,504.20007 148.5984,489.8806 116.4502,469.06123 90.944137,452.54333 55.513266,416.57967 39.959821,391.42064 -23.424797,288.89051 -7.8690085,158.07826 77.645121,74.516159 116.48258,36.565241 161.25008,13.832655 216.00393,4.2586388 c 28.3223,-4.95231117 73.13941,-3.0221025 101.85517,4.3867554 45.56416,11.7558608 81.75182,32.2311868 115.47039,65.3342668 51.14014,50.206669 76.93492,110.874069 76.93492,180.945289 0,70.92122 -25.1445,131.88771 -74.79852,181.3598 -56.30958,56.10329 -134.64443,82.73909 -213.29171,72.52447 z M 365.42792,404.1364 c 15.86425,-7.79024 30.05045,-21.97643 37.84068,-37.84069 l 6.11445,-12.45164 v -96.58639 -96.5864 l -7.11717,-14.45864 c -8.66239,-17.59773 -23.93066,-32.03616 -41.25895,-39.01649 -12.04422,-4.85175 -14.59556,-5.00137 -96.97981,-5.68734 -90.16219,-0.75072 -102.33821,0.19617 -120.4335,9.36575 -12.75713,6.46453 -27.15901,20.90211 -33.67263,33.75611 -8.97777,17.71679 -10.073165,32.21368 -9.1836,121.53991 0.92556,92.94028 0.96857,93.23871 16.38883,113.70739 4.49462,5.9661 12.89996,14.025 18.67853,17.90867 19.7325,13.26184 21.07231,13.40147 123.88339,12.91008 l 93.28813,-0.44587 z"
   id="path21"
   inkscape:connector-curvature="0"
   transform="scale(0.17530859)" /><path
   style="opacity:0.456;fill:none;fill-opacity:1;stroke:#000000;stroke-width:4.09982681;stroke-miterlimit:4;stroke-dasharray:none;stroke-opacity:1"
   d="M 227.14576,509.78081 C 181.26813,502.83119 148.90678,490.86625 114.3322,468.07031 96.6625,456.42021 66.783442,428.47473 53.671975,411.33559 -24.278102,309.44033 -14.587193,166.33138 76.455177,74.888281 143.08528,7.9649039 246.4574,-16.03296 337.17832,14.361338 425.06086,43.804694 491.23512,120.54466 507.0766,211.3864 c 4.52864,25.96919 4.10858,67.07205 -0.95072,93.02481 -19.43168,99.67934 -93.59839,176.4465 -193.40687,200.18811 -19.96728,4.74967 -68.87467,7.71103 -85.57325,5.18149 z m 137.1604,-105.76545 c 15.85193,-7.32212 33.02309,-24.29826 40.23474,-39.77778 4.78173,-10.26384 4.84215,-11.59864 4.84215,-106.98151 v -96.58799 l -7.13058,-14.48424 c -11.43287,-23.22346 -31.52312,-38.21361 -57.7007,-43.0528 -7.90949,-1.46215 -43.21371,-2.04351 -96.4006,-1.58745 -82.62409,0.70848 -84.12177,0.79984 -96.93761,5.91341 -17.8637,7.12767 -37.52459,26.80212 -44.59359,44.62436 -5.05429,12.74277 -5.17939,14.71969 -5.93915,93.85754 -0.49698,51.76645 0.0787,86.35014 1.60077,96.15991 5.0099,32.2896 23.34913,54.93476 52.8367,65.2424 10.32041,3.60761 19.1382,3.89958 103.4851,3.42663 l 92.20339,-0.51699 z"
   id="path23"
   inkscape:connector-curvature="0"
   transform="scale(0.17530859)" /><path
   style="opacity:0.456;fill:#373331;fill-opacity:1;stroke:#000000;stroke-width:1.0249567;stroke-miterlimit:4;stroke-dasharray:none;stroke-opacity:1"
   d="m 172.8379,376.38049 c -14.2132,-2.39848 -27.18109,-12.30296 -33.04724,-25.24047 -0.91339,-2.01444 -2.12908,-5.49394 -2.70154,-7.73223 -1.00381,-3.92485 -1.04083,-7.00575 -1.04083,-86.60797 0,-80.60277 0.0253,-82.63895 1.07938,-86.82849 3.77197,-14.99228 14.79544,-26.62149 30.10706,-31.76143 l 3.79661,-1.27448 83.25424,-0.15263 c 90.8487,-0.16655 86.48157,-0.29966 94.29169,2.87388 10.9493,4.4491 19.95368,13.36235 24.25378,24.00835 3.44751,8.53517 3.18717,1.51013 3.35931,90.64645 0.17232,89.22571 0.26912,86.30124 -3.13839,94.8111 -5.60913,14.00814 -18.2688,24.3584 -33.07148,27.03851 -3.31475,0.60015 -18.92793,0.72819 -84.33898,0.69162 -44.14915,-0.0247 -81.41078,-0.23717 -82.80361,-0.47221 z m 97.71886,-41.48185 c 16.38393,-3.20859 29.60169,-10.2746 41.52651,-22.19943 9.69848,-9.69848 15.22361,-18.59489 19.4727,-31.35441 2.88238,-8.65547 3.74812,-14.47208 3.73399,-25.08735 -0.018,-13.5095 -2.11684,-22.58891 -8.02421,-34.71186 -11.52148,-23.64412 -34.58618,-40.20643 -60.86074,-43.70292 -6.69522,-0.89097 -20.79636,-0.34615 -27.03469,1.04452 -14.75296,3.28878 -27.33847,10.02241 -38.14329,20.40783 -7.03916,6.76593 -11.60867,12.81978 -15.74821,20.8638 -5.27627,10.25292 -7.88915,19.42127 -8.68891,30.48857 -3.06683,42.43957 26.87732,79.16033 69.36007,85.05682 5.10152,0.70808 19.02418,0.24855 24.40678,-0.80557 z m 74.48371,-142.38195 c 3.999,-1.49622 8.01112,-5.3149 9.95975,-9.47958 1.31477,-2.80996 1.52264,-3.92066 1.52264,-8.13559 0,-4.24055 -0.19803,-5.28461 -1.5085,-7.95317 -3.26231,-6.64314 -8.92482,-10.32563 -16.3898,-10.65874 -5.63661,-0.25152 -9.42519,1.09741 -13.47335,4.79719 -6.93925,6.34209 -8.20384,16.38065 -3.06509,24.3313 4.89208,7.56898 14.09255,10.41421 22.95435,7.09859 z"
   id="path886"
   inkscape:connector-curvature="0"
   transform="scale(0.17530859)" /><path
   style="opacity:0.456;fill:#373331;fill-opacity:1;stroke:#000000;stroke-width:1.0249567;stroke-miterlimit:4;stroke-dasharray:none;stroke-opacity:1"
   d="M 240.45507,511.41436 C 183.03934,507.66165 130.11613,485.83476 87.234728,448.22236 80.089248,441.95487 65.534026,427.11562 59.871583,420.32525 25.618747,379.24945 5.8309312,330.9742 0.95776968,276.59643 c -0.78262178,-8.73298 -0.78262178,-32.48736 0,-41.22034 C 5.4424008,185.33379 22.323827,140.99486 51.754668,101.95842 71.224337,76.134277 96.655339,53.238326 124.38727,36.566094 c 73.96121,-44.4649306 166.89854,-48.412608 244.0678,-10.367212 25.8839,12.761084 47.7867,28.406831 68.0849,48.63484 35.32444,35.202288 59.28318,79.120368 69.63858,127.652438 8.51605,39.91172 7.31148,82.05931 -3.4688,121.37253 -16.3747,59.71479 -54.26107,111.7132 -106.36591,145.98547 -34.80418,22.89266 -74.33794,36.84578 -115.48199,40.75845 -11.27891,1.07258 -30.50628,1.45885 -40.40678,0.81175 z M 344.59066,409.75957 c 13.31667,-2.17863 24.78109,-7.18432 35.38782,-15.45128 14.51101,-11.30999 23.76939,-25.92524 28.49713,-44.98546 1.15048,-4.63826 1.1563,-5.03152 1.33342,-90.08233 0.19323,-92.7922 0.27564,-89.82212 -2.78411,-100.33898 -3.80287,-13.0711 -10.2084,-23.81893 -19.96523,-33.49962 -11.03052,-10.94446 -23.99262,-17.9435 -39.65498,-21.41218 l -5.52591,-1.2238 h -85.42373 c -79.70445,0 -85.75993,0.0647 -90.44526,0.96664 -15.95319,3.07095 -29.60007,10.30352 -41.11722,21.79129 -11.06617,11.03794 -17.88825,23.4898 -21.49636,39.23584 l -1.20541,5.26047 -0.18551,83.25424 c -0.12825,57.55646 -0.004,84.84465 0.40381,88.40678 3.62178,31.66597 25.96402,57.63616 57.18953,66.476 8.12399,2.29987 7.79651,2.29184 95.77167,2.34757 71.87546,0.0455 85.06035,-0.0646 89.22034,-0.74518 z"
   id="path888"
   inkscape:connector-curvature="0"
   transform="scale(0.17530859)" /><path
   style="opacity:0.456;fill:#373331;fill-opacity:1;stroke:#000000;stroke-width:1.0249567;stroke-miterlimit:4;stroke-dasharray:none;stroke-opacity:1"
   d="m 246.42117,301.22141 c -18.08171,-4.0268 -32.09481,-18.76177 -35.29468,-37.11285 -4.12959,-23.68299 11.87099,-46.94419 35.83705,-52.0989 5.03622,-1.08321 14.90187,-0.817 20.0678,0.5415 21.44844,5.64035 35.60282,24.99908 34.26116,46.85846 -0.43745,7.12744 -1.42836,10.7915 -4.72132,17.458 -4.51598,9.14246 -11.18058,15.81891 -20.3195,20.35562 -2.98305,1.48083 -6.88814,3.08319 -8.67797,3.5608 -4.73342,1.26309 -16.36483,1.50359 -21.15254,0.43737 z"
   id="path821"
   inkscape:connector-curvature="0"
   transform="scale(0.17530859)" /></svg>