<!DOCTYPE svg PUBLIC "-//W3C//DTD SVG 20010904//EN" "http://www.w3.org/TR/2001/REC-SVG-20010904/DTD/svg10.dtd">
<svg version="1.0" xmlns="http://www.w3.org/2000/svg" width="500px" height="500px" viewBox="0 0 5000 5000" preserveAspectRatio="xMidYMid meet">
<g id="layer101" fill="#5c822e" stroke="none">
 <path d="M2217 4580 c-21 -4 -43 -12 -50 -19 -6 -6 -18 -11 -26 -10 -11 0 -10 3 4 9 32 14 -3 11 -75 -5 -113 -27 -270 -78 -264 -86 3 -5 -1 -6 -9 -3 -33 12 -299 -115 -435 -208 -63 -43 -76 -48 -90 -36 -15 11 -15 11 -4 -3 10 -14 8 -19 -13 -33 -14 -9 -25 -13 -25 -9 0 4 -7 -3 -16 -15 -8 -12 -20 -20 -25 -16 -5 3 -8 1 -7 -4 2 -5 -23 -32 -54 -61 -32 -29 -56 -56 -53 -61 2 -4 -7 -18 -22 -31 -14 -13 -23 -17 -18 -9 4 8 -22 -14 -59 -50 -63 -62 -85 -88 -49 -59 13 11 13 8 -2 -12 -11 -15 -23 -25 -27 -23 -10 6 -127 -148 -191 -254 -95 -153 -171 -329 -223 -516 -28 -98 -64 -278 -63 -311 0 -20 0 -20 9 0 14 33 11 3 -5 -40 -11 -30 -14 -88 -12 -240 l1 -200 6 180 6 180 1 -236 c0 -203 2 -240 17 -260 9 -13 16 -28 16 -34 0 -5 -5 -3 -10 5 -5 8 -10 11 -10 7 0 -22 63 -255 91 -333 36 -102 145 -324 193 -394 93 -134 192 -256 290 -355 60 -60 101 -100 91 -87 -30 37 -11 34 26 -5 19 -20 28 -33 22 -29 -7 4 -13 5 -13 2 0 -10 149 -126 231 -179 151 -97 376 -202 413 -192 13 4 17 3 9 -2 -16 -11 80 -48 103 -39 8 3 13 2 10 -3 -7 -11 140 -55 159 -47 8 3 17 0 21 -5 3 -6 15 -9 25 -6 10 3 22 1 25 -4 3 -5 13 -9 22 -9 15 0 15 2 2 10 -8 5 -10 10 -5 10 6 -1 19 -7 29 -15 11 -8 31 -15 45 -14 24 0 24 1 6 9 -20 9 -20 9 0 9 11 1 31 -6 44 -15 20 -14 51 -16 254 -11 228 5 382 22 355 38 -7 5 5 6 27 3 30 -4 36 -3 25 5 -11 8 -7 9 19 4 22 -4 32 -3 28 4 -4 6 4 8 20 5 16 -3 24 -1 20 5 -4 6 4 8 21 6 22 -4 24 -2 12 7 -12 8 -10 9 10 5 45 -11 328 103 460 184 37 23 51 27 61 18 8 -7 10 -8 6 -3 -10 13 22 46 45 46 11 0 17 4 14 9 -3 5 2 12 11 15 32 12 182 131 183 144 0 7 5 10 10 7 9 -5 68 46 69 60 1 3 3 4 6 3 2 -2 26 18 53 45 39 39 50 45 62 35 12 -11 12 -10 1 5 -12 15 -8 23 38 70 28 28 60 64 72 80 11 15 26 25 32 21 7 -3 4 1 -6 9 -16 14 -16 16 4 38 11 13 17 17 13 9 -17 -36 18 11 71 95 80 127 167 310 213 450 43 130 61 201 43 175 -6 -8 -11 -10 -11 -4 0 6 7 17 15 24 18 15 20 34 3 24 -7 -4 -5 2 6 14 11 13 16 30 13 42 -3 11 -1 22 4 25 5 4 9 16 9 28 -1 12 2 38 5 57 4 28 3 31 -5 15 -9 -18 -10 -17 -5 5 2 14 6 108 7 210 l2 185 7 -170 c5 -155 6 -148 4 77 -1 222 -3 249 -19 267 -10 11 -16 26 -13 33 3 8 6 5 6 -6 1 -11 3 -17 6 -14 4 3 1 36 -6 73 -7 39 -15 62 -19 55 -4 -7 -8 9 -7 36 1 103 -120 399 -255 625 -117 196 -333 428 -527 567 -35 26 -77 58 -92 72 -15 14 -32 26 -39 28 -7 1 -47 23 -89 47 -144 83 -358 172 -387 161 -10 -4 -12 -2 -8 6 5 8 -2 9 -22 4 -21 -5 -25 -4 -14 4 8 5 12 10 9 10 -3 0 -57 13 -120 29 -123 31 -239 49 -204 31 18 -9 17 -10 -5 -5 -14 2 -59 6 -100 7 l-75 1 65 7 c38 4 -36 7 -175 7 -132 0 -257 -3 -278 -7z m336 -4157 c-40 -2 -107 -2 -150 0 -43 1 -10 3 72 3 83 0 118 -2 78 -3z"/>
 </g>
<g id="layer102" fill="#83b732" stroke="none">
 <path d="M2217 4580 c-21 -4 -43 -12 -50 -19 -6 -6 -18 -11 -26 -10 -11 0 -10 3 4 9 32 14 -3 11 -75 -5 -113 -27 -270 -78 -264 -86 3 -5 -1 -6 -9 -3 -33 12 -299 -115 -435 -208 -63 -43 -76 -48 -90 -36 -15 11 -15 11 -4 -3 10 -14 8 -19 -13 -33 -14 -9 -25 -13 -25 -9 0 4 -7 -3 -16 -15 -8 -12 -20 -20 -25 -16 -5 3 -8 1 -7 -4 2 -5 -23 -32 -54 -61 -32 -29 -56 -56 -53 -61 2 -4 -7 -18 -22 -31 -14 -13 -23 -17 -18 -9 4 8 -22 -14 -59 -50 -63 -62 -85 -88 -49 -59 13 11 13 8 -2 -12 -11 -15 -23 -25 -27 -23 -10 6 -127 -148 -191 -254 -95 -153 -171 -329 -223 -516 -28 -98 -64 -278 -63 -311 0 -20 0 -20 9 0 14 33 11 3 -5 -40 -11 -30 -14 -88 -12 -240 l1 -200 6 180 6 180 1 -236 c0 -203 2 -240 17 -260 9 -13 16 -28 16 -34 0 -5 -5 -3 -10 5 -5 8 -10 11 -10 7 0 -22 63 -255 91 -333 36 -102 145 -324 193 -394 93 -134 192 -256 290 -355 60 -60 101 -100 91 -87 -30 37 -11 34 26 -5 19 -20 28 -33 22 -29 -7 4 -13 5 -13 2 0 -10 149 -126 231 -179 151 -97 376 -202 413 -192 13 4 17 3 9 -2 -16 -11 80 -48 103 -39 8 3 13 2 10 -3 -7 -11 140 -55 159 -47 8 3 17 0 21 -5 3 -6 15 -9 25 -6 10 3 22 1 25 -4 3 -5 13 -9 22 -9 15 0 15 2 2 10 -8 5 -10 10 -5 10 6 -1 19 -7 29 -15 11 -8 31 -15 45 -14 24 0 24 1 6 9 -20 9 -20 9 0 9 11 1 31 -6 44 -15 20 -14 51 -16 254 -11 228 5 382 22 355 38 -7 5 5 6 27 3 30 -4 36 -3 25 5 -11 8 -7 9 19 4 22 -4 32 -3 28 4 -4 6 4 8 20 5 16 -3 24 -1 20 5 -4 6 4 8 21 6 22 -4 24 -2 12 7 -12 8 -10 9 10 5 45 -11 328 103 460 184 37 23 51 27 61 18 8 -7 10 -8 6 -3 -10 13 22 46 45 46 11 0 17 4 14 9 -3 5 2 12 11 15 32 12 182 131 183 144 0 7 5 10 10 7 9 -5 68 46 69 60 1 3 3 4 6 3 2 -2 26 18 53 45 39 39 50 45 62 35 12 -11 12 -10 1 5 -12 15 -8 23 38 70 28 28 60 64 72 80 11 15 26 25 32 21 7 -3 4 1 -6 9 -16 14 -16 16 4 38 11 13 17 17 13 9 -17 -36 18 11 71 95 80 127 167 310 213 450 43 130 61 201 43 175 -6 -8 -11 -10 -11 -4 0 6 7 17 15 24 18 15 20 34 3 24 -7 -4 -5 2 6 14 11 13 16 30 13 42 -3 11 -1 22 4 25 5 4 9 16 9 28 -1 12 2 38 5 57 4 28 3 31 -5 15 -9 -18 -10 -17 -5 5 2 14 6 108 7 210 l2 185 7 -170 c5 -155 6 -148 4 77 -1 222 -3 249 -19 267 -10 11 -16 26 -13 33 3 8 6 5 6 -6 1 -11 3 -17 6 -14 4 3 1 36 -6 73 -7 39 -15 62 -19 55 -4 -7 -8 9 -7 36 1 103 -120 399 -255 625 -117 196 -333 428 -527 567 -35 26 -77 58 -92 72 -15 14 -32 26 -39 28 -7 1 -47 23 -89 47 -144 83 -358 172 -387 161 -10 -4 -12 -2 -8 6 5 8 -2 9 -22 4 -21 -5 -25 -4 -14 4 8 5 12 10 9 10 -3 0 -57 13 -120 29 -123 31 -239 49 -204 31 18 -9 17 -10 -5 -5 -14 2 -59 6 -100 7 l-75 1 65 7 c38 4 -36 7 -175 7 -132 0 -257 -3 -278 -7z m518 -134 c271 -11 674 -168 923 -359 265 -205 479 -458 604 -718 92 -190 152 -380 178 -558 15 -109 16 -501 1 -611 -15 -105 -61 -292 -96 -385 -32 -84 -116 -260 -158 -329 -212 -348 -578 -656 -958 -807 -281 -111 -455 -139 -819 -132 -152 3 -204 8 -298 29 -215 48 -437 132 -587 223 -27 17 -67 39 -87 51 -65 35 -238 180 -340 284 -244 249 -401 521 -498 865 -44 157 -53 262 -48 573 5 298 5 298 83 543 127 398 426 789 790 1030 123 82 304 169 449 217 203 66 268 79 436 87 152 6 183 6 425 -3z m-182 -4023 c-40 -2 -107 -2 -150 0 -43 1 -10 3 72 3 83 0 118 -2 78 -3z"/>
 <path d="M1543 4116 c-119 -54 -499 -412 -594 -561 -151 -234 -233 -432 -295 -710 -21 -96 -30 -461 -15 -580 58 -431 280 -861 594 -1147 259 -236 548 -383 907 -459 140 -30 485 -33 652 -7 231 38 457 115 633 216 207 119 477 357 581 512 13 19 36 53 51 75 43 61 108 174 136 235 116 256 147 375 174 664 15 167 15 188 -1 330 -42 367 -136 619 -346 920 -115 166 -339 375 -528 495 -52 33 -54 34 -135 27 -301 -24 -568 -229 -651 -500 -28 -88 -18 -255 20 -351 102 -257 398 -507 666 -562 75 -15 99 -16 180 -5 139 17 219 52 294 127 79 79 99 129 99 248 0 53 3 97 7 97 17 0 33 -92 33 -190 0 -94 -3 -111 -28 -162 -35 -73 -136 -182 -198 -213 -62 -32 -147 -53 -241 -61 -43 -3 -78 -9 -78 -14 0 -5 22 -44 49 -88 71 -113 99 -187 110 -286 26 -225 -70 -389 -267 -457 -56 -19 -186 -27 -196 -11 -3 5 27 14 65 20 112 19 184 75 236 182 52 107 41 305 -24 440 -64 134 -172 238 -435 423 -144 101 -271 256 -364 446 l-51 104 -6 -69 c-24 -252 31 -836 109 -1163 83 -344 214 -581 388 -698 89 -61 128 -78 205 -94 163 -32 316 35 392 169 38 67 38 67 44 61 2 -3 -2 -27 -11 -54 -27 -91 -99 -181 -197 -243 -135 -87 -260 -96 -399 -28 -152 75 -273 200 -358 371 -80 161 -175 449 -235 709 -9 42 -20 23 -45 -79 -129 -533 -297 -846 -526 -975 -82 -46 -137 -60 -238 -60 -82 0 -95 3 -165 36 -125 61 -252 212 -251 301 1 27 1 27 23 -12 12 -22 50 -68 84 -101 49 -49 75 -66 124 -83 166 -56 343 2 505 166 122 123 209 301 279 572 37 147 45 185 70 351 39 252 72 878 47 894 -12 7 -32 -24 -88 -134 -21 -41 -52 -98 -70 -126 -41 -66 -187 -209 -288 -282 -246 -178 -342 -272 -397 -387 -146 -303 -39 -611 223 -642 57 -7 64 -22 11 -25 -136 -6 -231 29 -318 116 -34 34 -72 84 -85 111 -23 46 -25 62 -24 180 0 122 2 135 32 210 17 44 54 115 82 157 27 43 50 80 50 83 0 3 -33 5 -72 5 -147 0 -300 72 -389 183 -88 110 -119 252 -84 383 9 35 21 67 26 70 5 3 9 -39 9 -95 0 -87 4 -108 26 -157 69 -151 209 -224 430 -224 187 0 310 49 499 201 153 122 273 296 304 437 26 122 7 290 -42 383 -73 137 -210 266 -347 328 -128 57 -306 85 -367 57z"/>
 </g>
<g id="layer103" fill="#f8f9f5" stroke="none">
 <path d="M2217 4580 c-21 -4 -43 -12 -50 -19 -6 -6 -18 -11 -26 -10 -11 0 -10 3 4 9 32 14 -3 11 -75 -5 -113 -27 -270 -78 -264 -86 3 -5 -1 -6 -9 -3 -33 12 -299 -115 -435 -208 -63 -43 -76 -48 -90 -36 -15 11 -15 11 -4 -3 10 -14 8 -19 -13 -33 -14 -9 -25 -13 -25 -9 0 4 -7 -3 -16 -15 -8 -12 -20 -20 -25 -16 -5 3 -8 1 -7 -4 2 -5 -23 -32 -54 -61 -32 -29 -56 -56 -53 -61 2 -4 -7 -18 -22 -31 -14 -13 -23 -17 -18 -9 4 8 -22 -14 -59 -50 -63 -62 -85 -88 -49 -59 13 11 13 8 -2 -12 -11 -15 -23 -25 -27 -23 -10 6 -127 -148 -191 -254 -95 -153 -171 -329 -223 -516 -28 -98 -64 -278 -63 -311 0 -20 0 -20 9 0 14 33 11 3 -5 -40 -11 -30 -14 -88 -12 -240 l1 -200 6 180 6 180 1 -236 c0 -203 2 -240 17 -260 9 -13 16 -28 16 -34 0 -5 -5 -3 -10 5 -5 8 -10 11 -10 7 0 -22 63 -255 91 -333 36 -102 145 -324 193 -394 93 -134 192 -256 290 -355 60 -60 101 -100 91 -87 -30 37 -11 34 26 -5 19 -20 28 -33 22 -29 -7 4 -13 5 -13 2 0 -10 149 -126 231 -179 151 -97 376 -202 413 -192 13 4 17 3 9 -2 -16 -11 80 -48 103 -39 8 3 13 2 10 -3 -7 -11 140 -55 159 -47 8 3 17 0 21 -5 3 -6 15 -9 25 -6 10 3 22 1 25 -4 3 -5 13 -9 22 -9 15 0 15 2 2 10 -8 5 -10 10 -5 10 6 -1 19 -7 29 -15 11 -8 31 -15 45 -14 24 0 24 1 6 9 -20 9 -20 9 0 9 11 1 31 -6 44 -15 20 -14 51 -16 254 -11 228 5 382 22 355 38 -7 5 5 6 27 3 30 -4 36 -3 25 5 -11 8 -7 9 19 4 22 -4 32 -3 28 4 -4 6 4 8 20 5 16 -3 24 -1 20 5 -4 6 4 8 21 6 22 -4 24 -2 12 7 -12 8 -10 9 10 5 45 -11 328 103 460 184 37 23 51 27 61 18 8 -7 10 -8 6 -3 -10 13 22 46 45 46 11 0 17 4 14 9 -3 5 2 12 11 15 32 12 182 131 183 144 0 7 5 10 10 7 9 -5 68 46 69 60 1 3 3 4 6 3 2 -2 26 18 53 45 39 39 50 45 62 35 12 -11 12 -10 1 5 -12 15 -8 23 38 70 28 28 60 64 72 80 11 15 26 25 32 21 7 -3 4 1 -6 9 -16 14 -16 16 4 38 11 13 17 17 13 9 -17 -36 18 11 71 95 80 127 167 310 213 450 43 130 61 201 43 175 -6 -8 -11 -10 -11 -4 0 6 7 17 15 24 18 15 20 34 3 24 -7 -4 -5 2 6 14 11 13 16 30 13 42 -3 11 -1 22 4 25 5 4 9 16 9 28 -1 12 2 38 5 57 4 28 3 31 -5 15 -9 -18 -10 -17 -5 5 2 14 6 108 7 210 l2 185 7 -170 c5 -155 6 -148 4 77 -1 222 -3 249 -19 267 -10 11 -16 26 -13 33 3 8 6 5 6 -6 1 -11 3 -17 6 -14 4 3 1 36 -6 73 -7 39 -15 62 -19 55 -4 -7 -8 9 -7 36 1 103 -120 399 -255 625 -117 196 -333 428 -527 567 -35 26 -77 58 -92 72 -15 14 -32 26 -39 28 -7 1 -47 23 -89 47 -144 83 -358 172 -387 161 -10 -4 -12 -2 -8 6 5 8 -2 9 -22 4 -21 -5 -25 -4 -14 4 8 5 12 10 9 10 -3 0 -57 13 -120 29 -123 31 -239 49 -204 31 18 -9 17 -10 -5 -5 -14 2 -59 6 -100 7 l-75 1 65 7 c38 4 -36 7 -175 7 -132 0 -257 -3 -278 -7z m528 -134 c109 -4 235 -32 401 -90 291 -101 513 -243 745 -475 194 -194 319 -377 419 -615 123 -289 167 -586 141 -951 -33 -462 -233 -884 -578 -1215 -290 -279 -662 -471 -1033 -534 -232 -39 -591 -29 -792 23 -723 187 -1249 699 -1447 1410 -47 169 -54 239 -49 558 5 272 6 293 31 384 50 182 87 284 150 414 111 226 228 385 414 566 252 244 516 390 893 491 150 41 323 49 705 34z m-192 -4023 c-40 -2 -107 -2 -150 0 -43 1 -10 3 72 3 83 0 118 -2 78 -3z"/>
 <path d="M1539 4112 c-72 -37 -219 -162 -384 -327 -150 -149 -179 -184 -238 -282 -124 -205 -212 -424 -257 -638 -27 -128 -38 -434 -21 -586 32 -290 157 -611 339 -869 82 -117 297 -334 417 -423 475 -349 1068 -446 1671 -272 277 81 531 238 769 479 158 159 242 275 338 466 123 244 173 431 197 729 29 366 -71 771 -268 1088 -152 245 -386 483 -611 620 -54 34 -59 35 -131 29 -361 -27 -669 -320 -670 -636 0 -188 74 -344 242 -509 99 -97 176 -153 283 -205 114 -56 176 -71 295 -70 198 1 346 77 421 216 31 59 34 69 34 160 0 54 3 98 7 98 17 0 33 -92 33 -190 0 -99 -2 -109 -33 -173 -78 -160 -218 -246 -427 -263 -47 -4 -85 -9 -85 -12 0 -3 27 -51 60 -106 32 -56 66 -121 75 -146 23 -62 35 -197 25 -267 -17 -123 -102 -238 -217 -295 -57 -28 -79 -33 -160 -36 -110 -5 -149 11 -53 21 122 13 215 80 266 190 27 58 29 70 29 182 -1 104 -4 130 -27 192 -32 91 -103 197 -173 261 -29 27 -132 108 -228 181 -97 72 -199 157 -227 188 -69 76 -152 203 -203 311 l-42 87 -9 -100 c-16 -175 17 -605 70 -915 74 -429 186 -689 372 -861 229 -212 537 -191 662 45 47 88 50 37 4 -60 -48 -102 -166 -205 -280 -245 -144 -51 -314 0 -465 139 -83 76 -145 162 -201 279 -55 114 -149 393 -198 585 -18 70 -36 125 -40 123 -4 -3 -11 -21 -14 -40 -35 -187 -156 -537 -244 -710 -49 -95 -69 -123 -152 -205 -116 -117 -201 -164 -323 -181 -96 -13 -154 -2 -241 43 -119 63 -243 220 -234 296 3 26 4 26 25 -13 38 -71 100 -132 171 -167 61 -30 74 -33 163 -33 93 0 98 1 183 43 297 148 461 483 550 1132 34 248 55 809 31 819 -5 2 -41 -55 -80 -128 -108 -202 -162 -262 -420 -457 -71 -54 -152 -116 -178 -138 -234 -199 -296 -550 -130 -746 35 -43 132 -88 205 -96 69 -8 68 -20 -2 -26 -116 -11 -227 29 -319 117 -81 77 -104 131 -109 261 -6 150 31 271 127 413 23 33 41 62 41 65 0 4 -34 6 -76 6 -130 0 -279 63 -365 156 -103 112 -144 275 -103 415 26 88 34 81 34 -30 0 -91 3 -108 27 -158 55 -111 163 -189 298 -214 85 -16 266 -6 335 19 215 76 450 281 549 479 43 87 61 163 61 260 0 104 -14 172 -53 248 -98 196 -309 350 -537 391 -101 18 -139 17 -181 -4z m194 -268 c121 -31 227 -104 304 -207 57 -77 153 -272 153 -311 l0 -29 -97 7 c-200 15 -380 81 -468 171 -83 85 -184 288 -185 369 l0 29 117 -7 c64 -3 143 -13 176 -22z m1782 19 l47 -6 -4 -41 c-6 -51 -71 -193 -127 -275 -95 -139 -272 -220 -524 -237 l-100 -7 6 34 c4 19 35 90 69 159 53 106 72 135 137 200 109 109 199 155 336 170 100 11 107 11 160 3z m-1516 -639 c109 -25 110 -35 12 -138 -63 -66 -147 -126 -228 -163 -52 -24 -63 -25 -172 -20 -121 5 -208 27 -218 55 -10 24 26 77 101 150 81 79 152 119 234 132 69 10 184 4 271 -16z m1391 -18 c63 -33 174 -142 208 -204 l24 -42 -59 -28 c-54 -25 -67 -27 -183 -27 -176 1 -204 13 -354 156 -64 61 -116 117 -116 125 0 37 86 53 270 51 149 -2 157 -3 210 -31z m-535 -460 c87 -52 210 -152 276 -225 68 -74 112 -159 128 -245 15 -80 13 -322 -2 -366 -15 -42 -24 -42 -124 5 -210 98 -351 256 -399 448 -20 80 -31 394 -15 425 10 20 13 20 45 7 19 -8 60 -30 91 -49z m-571 32 c16 -63 -3 -352 -30 -462 -32 -125 -92 -206 -227 -306 -80 -60 -197 -123 -248 -134 -25 -5 -26 -4 -39 67 -27 152 -7 342 49 462 52 111 202 250 378 351 88 50 108 54 117 22z m1725 -289 c69 -24 116 -56 185 -129 113 -119 80 -155 -151 -167 -113 -6 -113 -6 -180 27 -48 24 -96 61 -165 128 -54 52 -98 101 -98 108 0 28 202 65 305 56 28 -2 74 -13 104 -23z m-2664 -1 c74 -20 71 -35 -32 -137 -65 -65 -106 -97 -158 -122 -66 -32 -75 -34 -180 -34 -104 0 -200 19 -229 45 -39 37 130 209 251 255 47 18 272 14 348 -7z m-48 -324 c10 -26 -13 -173 -37 -237 -43 -114 -195 -238 -297 -241 l-38 -1 1 85 c1 120 28 186 108 265 42 41 89 74 146 103 94 47 108 50 117 26z m2523 -26 c61 -30 103 -60 151 -107 73 -73 91 -113 108 -236 13 -91 7 -115 -29 -115 -39 0 -184 75 -226 116 -64 64 -108 179 -120 310 -8 91 -6 92 116 32z m-1215 -523 c66 -135 107 -265 108 -349 3 -120 -66 -302 -159 -420 l-46 -58 -25 24 c-36 33 -100 130 -133 201 -63 134 -74 247 -40 383 23 88 101 253 157 328 l36 50 29 -34 c16 -19 49 -75 73 -125z"/>
 </g>

</svg>